<svg xmlns="http://www.w3.org/2000/svg" xmlns:xlink="http://www.w3.org/1999/xlink" width="755.246" height="513.728" viewBox="0 0 755.246 513.728">
  <defs>
    <linearGradient id="linear-gradient" x1="1" y1="0.5" x2="0" y2="0.5" gradientUnits="objectBoundingBox">
      <stop offset="0" stop-color="#4099f1"/>
      <stop offset="1" stop-color="#acd4f3"/>
    </linearGradient>
    <linearGradient id="linear-gradient-2" x1="1.245" y1="0.21" x2="-0.291" y2="0.816" gradientUnits="objectBoundingBox">
      <stop offset="0" stop-color="#acd4f3"/>
      <stop offset="1" stop-color="#4099f1"/>
    </linearGradient>
    <linearGradient id="linear-gradient-3" x1="0.5" y1="-0.149" x2="0.5" y2="1.164" gradientUnits="objectBoundingBox">
      <stop offset="0" stop-color="#5693cf"/>
      <stop offset="1" stop-color="#4099f1" stop-opacity="0"/>
    </linearGradient>
    <linearGradient id="linear-gradient-4" x1="1.119" y1="0.435" x2="0.256" y2="0.485" xlink:href="#linear-gradient"/>
    <clipPath id="clip-path">
      <path id="Path_28" data-name="Path 28" d="M545.575,191.744V615.372c48.675-42.72,27.938,44.182,125.189,4.606s165.023,49.888,296.637-7.552,115.387,47.128,239.159-10.311c55.4-25.71,98.1-77.145,68.148-138.9-32.7-67.439-78.932-80.136-124.126-133.823-35.764-42.486-32.7-80.51-59.955-126.491-26.6-44.878-88.761-42.859-134.191-39.652-69.637,4.916-138.059,5.227-204.56,25.256C677.464,210.914,601.391,203.755,545.575,191.744Z" transform="translate(-545.575 -161.775)" fill="none"/>
    </clipPath>
    <linearGradient id="linear-gradient-5" x1="1" y1="0.5" x2="0" y2="0.5" gradientUnits="objectBoundingBox">
      <stop offset="0" stop-color="#ff1f5a"/>
      <stop offset="1" stop-color="#ff6c7e"/>
    </linearGradient>
    <linearGradient id="linear-gradient-6" x1="1" y1="0.5" x2="0" y2="0.5" gradientUnits="objectBoundingBox">
      <stop offset="0" stop-color="#ff63de"/>
      <stop offset="1" stop-color="#b122e5"/>
    </linearGradient>
    <linearGradient id="linear-gradient-7" x1="1" y1="0.5" x2="0" y2="0.5" gradientUnits="objectBoundingBox">
      <stop offset="0" stop-color="#dbe42c"/>
      <stop offset="1" stop-color="#6ad419"/>
    </linearGradient>
    <linearGradient id="linear-gradient-8" x1="0.546" y1="0.949" x2="0.306" y2="-0.032" gradientUnits="objectBoundingBox">
      <stop offset="0" stop-color="#4005b9"/>
      <stop offset="1" stop-color="#a393eb"/>
    </linearGradient>
    <clipPath id="clip-path-2">
      <path id="Path_34" data-name="Path 34" d="M560.246,254.251V568.769c62.377-62.361,85.463,56.957,158.85,13.751,37.924-22.326,60.776,17.956,86.18,39.429,53.6,45.305,104.073,2.337,154.058-25.21,44.171-24.341,97.024-29.475,146.491-24.247,46.946,4.963,96.019,18.325,140,1.182,89.158-34.753,86.547-154.858,27.146-215.178-37.473-38.051-91.859-53.59-135.806-83.94-35.324-24.4-63.031-57.789-88.307-92.069-22.523-30.546-61.588-50.1-99.529-53.392C816.793,117.6,791.1,199.51,677.144,239.314,627.261,256.736,588.291,258.16,560.246,254.251Z" transform="translate(-560.246 -128)" fill="none"/>
    </clipPath>
    <linearGradient id="linear-gradient-9" x1="0.113" y1="1.155" x2="0.826" y2="-0.238" gradientUnits="objectBoundingBox">
      <stop offset="0" stop-color="#ab644c"/>
      <stop offset="1" stop-color="#d4937c"/>
    </linearGradient>
    <linearGradient id="linear-gradient-10" x1="0.5" y1="0.039" x2="0.5" y2="1.222" gradientUnits="objectBoundingBox">
      <stop offset="0" stop-color="#ff8a5f"/>
      <stop offset="1" stop-color="#ffb965"/>
    </linearGradient>
    <linearGradient id="linear-gradient-11" x1="0.5" y1="0.334" x2="0.5" y2="1.391" xlink:href="#linear-gradient-10"/>
    <linearGradient id="linear-gradient-12" x1="0.5" y1="0.87" x2="0.655" y2="-0.43" xlink:href="#linear-gradient-10"/>
    <linearGradient id="linear-gradient-13" x1="0.5" y1="0.272" x2="0.5" y2="0.896" gradientUnits="objectBoundingBox">
      <stop offset="0" stop-color="#c9e2f4"/>
      <stop offset="1" stop-color="#eaf5ff"/>
    </linearGradient>
    <linearGradient id="linear-gradient-14" x1="0.652" y1="0.955" x2="0.223" y2="-0.021" xlink:href="#linear-gradient-7"/>
    <filter id="Path_41" x="349.63" y="46.046" width="66.777" height="68.768" filterUnits="userSpaceOnUse">
      <feOffset dx="7" dy="7" input="SourceAlpha"/>
      <feGaussianBlur stdDeviation="2.5" result="blur"/>
      <feFlood flood-opacity="0.051"/>
      <feComposite operator="in" in2="blur"/>
      <feComposite in="SourceGraphic"/>
    </filter>
    <linearGradient id="linear-gradient-15" x1="0.695" y1="0.85" x2="0.177" y2="-0.079" gradientUnits="objectBoundingBox">
      <stop offset="0" stop-color="#ffdd67"/>
      <stop offset="1" stop-color="#ffa330"/>
    </linearGradient>
    <filter id="Path_45" x="240.366" y="47.887" width="48.501" height="48.494" filterUnits="userSpaceOnUse">
      <feOffset dx="7" dy="7" input="SourceAlpha"/>
      <feGaussianBlur stdDeviation="2.5" result="blur-2"/>
      <feFlood flood-opacity="0.051"/>
      <feComposite operator="in" in2="blur-2"/>
      <feComposite in="SourceGraphic"/>
    </filter>
    <linearGradient id="linear-gradient-16" x1="1.118" y1="0.483" x2="0.275" y2="0.533" xlink:href="#linear-gradient"/>
    <linearGradient id="linear-gradient-17" x1="0.413" y1="1.027" x2="0.624" y2="-0.025" xlink:href="#linear-gradient-13"/>
    <linearGradient id="linear-gradient-18" x1="0.198" y1="0.721" x2="0.573" y2="0.176" gradientUnits="objectBoundingBox">
      <stop offset="0" stop-color="#1d164d"/>
      <stop offset="1" stop-color="#4a4975"/>
    </linearGradient>
    <linearGradient id="linear-gradient-19" x1="0.215" y1="0.652" x2="0.69" y2="0.232" xlink:href="#linear-gradient-9"/>
    <linearGradient id="linear-gradient-20" x1="0.201" y1="0.901" x2="0.476" y2="0.552" xlink:href="#linear-gradient-13"/>
    <linearGradient id="linear-gradient-21" x1="-0.011" y1="0.867" x2="0.833" y2="0.119" xlink:href="#linear-gradient-18"/>
    <linearGradient id="linear-gradient-23" x1="0.246" y1="1.082" x2="0.555" y2="0.453" xlink:href="#linear-gradient-9"/>
    <linearGradient id="linear-gradient-24" x1="-0.062" y1="0.357" x2="0.79" y2="0.602" xlink:href="#linear-gradient-5"/>
    <linearGradient id="linear-gradient-25" x1="1" y1="0.5" x2="0" y2="0.5" xlink:href="#linear-gradient-9"/>
    <linearGradient id="linear-gradient-26" x1="0.2" y1="1.12" x2="0.521" y2="0.471" xlink:href="#linear-gradient-5"/>
    <linearGradient id="linear-gradient-27" x1="0.313" y1="0.641" x2="0.895" y2="0.384" xlink:href="#linear-gradient-5"/>
    <linearGradient id="linear-gradient-28" x1="0.235" y1="0.46" x2="0.604" y2="0.518" xlink:href="#linear-gradient-13"/>
    <linearGradient id="linear-gradient-29" x1="0.233" y1="0.5" x2="0.573" y2="0.5" xlink:href="#linear-gradient-13"/>
    <linearGradient id="linear-gradient-30" x1="0.5" y1="0.037" x2="0.5" y2="0.799" xlink:href="#linear-gradient-13"/>
    <linearGradient id="linear-gradient-31" x1="0.5" y1="0.159" x2="0.5" y2="0.661" xlink:href="#linear-gradient-13"/>
    <linearGradient id="linear-gradient-32" x1="0.642" y1="0.943" x2="0.373" y2="0.104" xlink:href="#linear-gradient-13"/>
    <linearGradient id="linear-gradient-33" x1="0.554" y1="0.72" x2="0.39" y2="0.051" xlink:href="#linear-gradient-13"/>
    <linearGradient id="linear-gradient-34" x1="0.5" y1="1.821" x2="0.5" y2="-0.516" xlink:href="#linear-gradient-13"/>
    <linearGradient id="linear-gradient-35" x1="0.5" y1="0.28" x2="0.5" y2="0.996" gradientUnits="objectBoundingBox">
      <stop offset="0" stop-color="#99b5c6"/>
      <stop offset="1" stop-color="#99b5c6" stop-opacity="0"/>
    </linearGradient>
  </defs>
  <g id="Illustration" transform="translate(0)">
    <g id="bg">
      <g id="Group_20" data-name="Group 20">
        <path id="Path_1" data-name="Path 1" d="M545.575,191.743V615.371c48.675-42.72,27.942,44.182,125.188,4.61s180.892,48.19,296.643-7.553,115.378,47.124,239.151-10.317c55.4-25.7,98.1-77.137,68.152-138.9-32.7-67.439-78.935-80.136-124.123-133.819-35.768-42.495-32.7-80.517-59.96-126.5-26.6-44.875-88.755-42.86-134.187-39.646-69.643,4.91-138.067,5.225-204.56,25.25-37.868,11.4-76.167,15.152-112.01,14.5A493.6,493.6,0,0,1,545.575,191.743Z" transform="translate(-545.575 -128.861)" opacity="0.2" fill="url(#linear-gradient)"/>
        <path id="Path_2" data-name="Path 2" d="M560.246,254.251V568.769c62.377-62.361,85.463,56.957,158.85,13.751,37.924-22.326,60.776,17.956,86.18,39.429,53.6,45.305,104.073,2.337,154.058-25.21,44.171-24.341,97.024-29.475,146.491-24.247,46.946,4.963,66.019,18.325,110,1.182,89.158-34.753,86.547-154.858,27.146-215.178-37.473-38.051-91.859-53.59-135.806-83.94-35.324-24.4-33.031-37.789-58.307-72.069-22.523-30.546-61.588-50.1-99.529-53.392C816.793,137.6,791.1,199.51,677.144,239.314,627.261,256.736,588.291,258.16,560.246,254.251Z" transform="translate(-560.246 -128)" fill="url(#linear-gradient-2)"/>
        <g id="Group_1" data-name="Group 1" transform="translate(0 431.402)">
          <path id="Path_3" data-name="Path 3" d="M943.713,625.733C893.73,653.293,843.254,696.28,789.66,650.955c-25.4-21.482-48.254-61.783-86.177-39.447-43.749,25.769-69.621-6.247-96.6-23.092h619.264a110.827,110.827,0,0,1-25.95,14.242c-43.981,17.151-63.053,3.783-110-1.182C1040.735,596.245,987.883,601.38,943.713,625.733Z" transform="translate(-544.625 -588.416)" fill="url(#linear-gradient-3)"/>
          <path id="Path_4" data-name="Path 4" d="M1365.278,588.416a89.218,89.218,0,0,0-10.823,9.334v-9.334Z" transform="translate(-1354.455 -588.416)" fill="url(#linear-gradient-4)"/>
        </g>
        <g id="Group_2" data-name="Group 2" transform="translate(207.63 448.839)">
          <ellipse id="Ellipse_1" data-name="Ellipse 1" cx="9.258" cy="1.792" rx="9.258" ry="1.792" transform="translate(106.679)" fill="#5693ce"/>
          <ellipse id="Ellipse_2" data-name="Ellipse 2" cx="7.988" cy="1.546" rx="7.988" ry="1.546" transform="translate(161.395 10.164)" fill="#5693ce"/>
          <ellipse id="Ellipse_3" data-name="Ellipse 3" cx="14.695" cy="2.844" rx="14.695" ry="2.844" transform="translate(86.547 25.54)" fill="#5693ce"/>
          <ellipse id="Ellipse_4" data-name="Ellipse 4" cx="10.222" cy="1.978" rx="10.222" ry="1.978" transform="translate(0 1.605)" fill="#5693ce"/>
          <ellipse id="Ellipse_5" data-name="Ellipse 5" cx="6.898" cy="1.335" rx="6.898" ry="1.335" transform="translate(47.846 12.651)" fill="#5693ce"/>
        </g>
        <g id="Group_16" data-name="Group 16" transform="translate(0 32.914)">
          <g id="Group_15" data-name="Group 15" clip-path="url(#clip-path)">
            <g id="Group_14" data-name="Group 14" transform="translate(556.516 230.037)">
              <g id="Group_13" data-name="Group 13">
                <g id="Group_12" data-name="Group 12">
                  <path id="Path_5" data-name="Path 5" d="M589.786,496.572s-18.371-36.56,20.654-58.886c0,0,12.657,22.551-2.968,42.209l-5.516-3.347,2.054,6.412Z" transform="translate(-479.186 -410.442)" fill="url(#linear-gradient-5)"/>
                  <path id="Path_6" data-name="Path 6" d="M575.817,620.387l1.615.6,2.36.874,20.442,7.6,3.843,1.377,3.418,1.274,9.943,3.705a.055.055,0,0,1,.066.047l3.975,1.47.68.232,8.886,3.3,2.105.744.009.056,6.317,2.232,1.558.606,6.7,2.456,4.225-3.516,9.268-7.694,9.117-7.553,1.774-1.525.771-.6-.009-.057,1.54-1.194,4.215-3.573,7.841-6.519,6.873-5.714,9.822-8.2.206-.152,3.314-2.72-4.91-1.834-5.457-1.972-5.155-1.908-2.106-.744-2.191-.9-7.7-2.81-5.023-1.814-5.467-2.029-1.549-.549-16.4-6.087-3.6-1.3-1.8-.679L641,573.742l-1.057-.4-4.656-1.7-.5-.2-7.794,6.453-5.249,4.33-1.681,1.393L616.7,586.4l-2.244,1.839-2.686,2.321-8.3,6.889-.047.067-2.6,2.132-.047.067-3.361,2.786-1.437,1.119-1.278,1.033.01.056-.517.38-.046.067-1.578,1.317-2.441,2.047L577.3,619.2Z" transform="translate(-561.559 -418.863)" fill="#312368"/>
                  <path id="Path_7" data-name="Path 7" d="M605.664,565.805s-.239-6.409-.051-16.175c.2-9.736.893-22.736,2.5-35.648.781-6.46,1.875-12.87,3.043-18.864,1.264-5.97,2.72-11.477,4.148-16.157a109.783,109.783,0,0,1,4.19-11.047c1.171-2.613,1.839-4.107,1.839-4.107s-.771,1.444-2.12,3.97a110.818,110.818,0,0,0-4.977,10.805c-1.762,4.606-3.615,10.054-5.31,16-1.6,5.958-3.152,12.362-4.394,18.831-2.525,12.932-4.135,26.029-5.027,35.883-.876,9.831-1.092,16.512-1.092,16.512Z" transform="translate(-497.368 -412.087)" fill="#a30f3d"/>
                  <path id="Path_8" data-name="Path 8" d="M617.166,566.319A36.525,36.525,0,0,0,619.939,573c.342.639.684,1.278,1.084,1.907a43.1,43.1,0,0,0,3.776,5.4,36.507,36.507,0,0,0,3.524,3.932,3.837,3.837,0,0,0,.5.554,15.114,15.114,0,0,0,1.847,1.952.056.056,0,0,0,.066.047c.076.1.2.14.275.244,1.5.615,3.749,1.509,6.2,2.544.812.326,1.623.651,2.492.968.511.261,1.068.456,1.578.718,4.817,1.967,9.284,3.934,9.521,4.3.142.15,2.422-.124,5.879-.658l3.787-.649c.847-.145,1.752-.3,2.7-.521,1.3-.223,2.713-.466,4.116-.764l.282-.049c.735-.126,1.47-.252,2.194-.434,1.188-.2,2.42-.473,3.608-.677,8.089-1.677,15.481-3.351,16.25-3.949.31-.228.645-1.331,1.052-3.029.5-1.83,1-4.358,1.54-7.3.147-.84.34-1.745.478-2.641-.325-.875-.659-1.807-.994-2.738a73.272,73.272,0,0,0-6.353-12.287c-.959-1.522-1.842-2.94-2.612-4.379a4.263,4.263,0,0,1-.438-.855,44.864,44.864,0,0,1-5.025-14.375,62.409,62.409,0,0,1-.058-16.622c.346-4.77,1.2-10.324,2.091-16.642,3.73-25.064-6.846-14.819-22.86-34.929a22.6,22.6,0,0,1-4.583-10.787c-3.049-19.133,12.853-43.435-8.786-50.892a20.381,20.381,0,0,0-2.4-.752,1.8,1.8,0,0,0-.614-.186,19.515,19.515,0,0,0-3.01-.589c-27.3-3.812-27.462,37.623-27.5,40.13l.019.112-4.91,12.414s17.109,67.2,11.555,89.09l.009.056A27.817,27.817,0,0,0,617.166,566.319Z" transform="translate(-574.588 -408.612)" fill="url(#linear-gradient-6)"/>
                  <path id="Path_9" data-name="Path 9" d="M647.414,476.227c-.572-.99-1.089-1.991-1.659-2.983a35.219,35.219,0,0,1-8.522-3.267,48.4,48.4,0,0,1-9.116-6.2c3.556,1.034,6.91,2.358,10.308,3.469,1.675.587,3.372,1.184,5.046,1.689a54.373,54.373,0,0,1-5.167-14.291,47.084,47.084,0,0,1-.588-8.844l-.008-.007a32.1,32.1,0,0,1-5.582-6.573,26.4,26.4,0,0,1-3.624-7.7,77.465,77.465,0,0,0,9.381,9.835v-.01c1.173-13.519,6.1-27.158,8.219-32.464a19.522,19.522,0,0,1,3.01.589,1.8,1.8,0,0,1,.614.186c-1.918,4.744-7.122,18.756-8.179,32.3a37.542,37.542,0,0,0,7.845-3.414,20.956,20.956,0,0,0,4.586-3.571,23.372,23.372,0,0,0,1.889-2.3,30.813,30.813,0,0,0,1.6-2.659c-.177,4.3-2.832,8.366-6.3,11.1a26.719,26.719,0,0,1-9.864,4.615,41.755,41.755,0,0,0,.557,8.314c1,5.47,3.415,10.755,6.22,15.916,0,.007.007.011.01.018a61.811,61.811,0,0,0,7.2-3.128c2.341-1.409,4.881-2.911,5.552-5.9a5,5,0,0,1,.008,2.319,8.337,8.337,0,0,1-.92,2.215,14.426,14.426,0,0,1-3.175,3.492,25.877,25.877,0,0,1-6.97,4.135c.308.464.554.884.808,1.358,5.475,9.878,11.168,20.011,6.274,29.806l-.008.026a55.1,55.1,0,0,0,8.919-2.538c4.091-1.5,7.9-3.768,10.3-7.8a12.244,12.244,0,0,1-3.2,6.329,22.35,22.35,0,0,1-5.807,4.314,36.964,36.964,0,0,1-12.725,3.715c-1.771,2.514-2.176,6.241-1.647,10.678a69.054,69.054,0,0,0,4.067,15.237c.574,1.646,1.269,3.329,2.031,5.06.82,2.069,1.707,4.186,2.7,6.226,1.486,3.235,3.074,6.393,4.653,9.5.856,1.6,1.7,3.139,2.549,4.68l.009.057c1.369,2.556,2.775,4.991,4.106,7.321,2.622,4.436,5.034,8.326,6.932,11.257l-3.092,1.984c-.408-.686-1.262-1.935-2.373-3.664-1.7-2.791-4.132-6.794-6.868-11.558-.6-1.119-1.255-2.227-1.921-3.393-.845-1.542-1.7-3.139-2.557-4.737-2.6-4.964-5.2-10.333-7.463-15.7-.706-1.739-1.412-3.479-2.051-5.172-.544-1.478-1.088-2.954-1.566-4.384a73.031,73.031,0,0,1-2.371-9.422c-.979-5.7-.861-10.783.986-14.589a25.909,25.909,0,0,1-6.181-3.6,38.58,38.58,0,0,1-6.785-6.283l8.028,4.26a36.384,36.384,0,0,0,6.784,2.672c.008-.018.02-.033.026-.052.113-.019.1-.076.15-.141,5.767-8.432,1.1-17.344-4.661-27.523A5.08,5.08,0,0,0,647.414,476.227Z" transform="translate(-583.64 -408.628)" fill="#fff"/>
                  <path id="Path_11" data-name="Path 11" d="M670.237,592.533a92.792,92.792,0,0,0,9.962,20.1l.066.047,1.615.6,2.36.874,17.014,6.273,3.664,1.349,3.607,1.36,3.418,1.274,9.943,3.705a.055.055,0,0,1,.066.047l3.966,1.413.009.057.68.232a61.811,61.811,0,0,1-3.636-11.706c-.221-.951-.406-2.024-.59-3.1l-.009-.056c-.359-2.091-.623-4.313-.851-6.659-.029-.17,0-.349-.04-.574a79.028,79.028,0,0,1,.575-18.359l.047-.066-.009-.056c.394-2.452.89-4.979,1.5-7.527a29.37,29.37,0,0,0,.916-5.856,28.419,28.419,0,0,0-.728-8.656c-2.27-9.846-8.867-17.788-11.906-28.723l-.01-.057c-2.3-8.328-2.527-18.467,2.876-32.42,5.234-13.574,5.141-25.654,1.986-35.233-.344-.988-.735-1.909-1.126-2.831-3.24-7.7-8.583-13.417-14.63-16.451a20.094,20.094,0,0,0-18.43-.622,33.592,33.592,0,0,0-3.948,2.421c-19.921,15.453,23.068,59.552-2.294,88.73C662.367,558.174,664.966,578.083,670.237,592.533Z" transform="translate(-666.007 -411.156)" fill="url(#linear-gradient-7)"/>
                  <g id="Group_3" data-name="Group 3" transform="translate(16.534 38.072)">
                    <path id="Path_12" data-name="Path 12" d="M695.837,595.494c.183.725.421,1.44.594,2.108.307,1.11.6,2.165.9,3.219q1.524,5.321,3.1,9.936c.115.329.239.715.354,1.044,1.08,3.247,2.215,6.134,3.225,8.636l3.664,1.349,3.607,1.36a6.93,6.93,0,0,1-.456-.969,101.086,101.086,0,0,1-4.615-11.305c-.1-.273-.143-.5-.248-.771-1.051-3.076-2.17-6.549-3.271-10.256-.172-.668-.355-1.393-.594-2.108-.038-.226-.134-.442-.182-.725l-.01-.056c-1.006-3.491-1.937-7.227-2.842-11.143-.818-3.757-1.666-7.682-2.354-11.692-.378-2.2-.766-4.464-1.106-6.79a42.62,42.62,0,0,1-.454-6.377,45.608,45.608,0,0,1,1.293-11.795,110.736,110.736,0,0,1,3.38-11.164c3.708-11.277,7.91-24.094,4.718-45.761-2.98-20.426-8.906-34.3-13.829-42.991a21.358,21.358,0,0,0-5.412,1.683c4.872,8.063,10.931,21.679,13.919,42.161,2.96,20.312-.926,31.911-4.626,43.245-1.31,3.889-2.575,7.711-3.508,11.767a50.844,50.844,0,0,0-1.234,16.2c.034,1.216.2,2.525.366,3.834A232.778,232.778,0,0,0,695.837,595.494Z" transform="translate(-685.298 -449.242)" fill="#fff"/>
                  </g>
                  <g id="Group_9" data-name="Group 9" transform="translate(69.153 152.497)">
                    <path id="Path_16" data-name="Path 16" d="M634.192,619.393l2.568,3.386.012.071.1.131,1.716,2.282L654.3,646.487" transform="translate(-633.029 -574.379)" fill="none"/>
                    <path id="Path_17" data-name="Path 17" d="M579.915,640.877,596.571,647l4.253-3.525,18.357-15.289,1.806-1.487,2.257-1.859,4.242-3.6,24.547-20.4c-.144-.417-.231-.917-.376-1.334-.206-.774-.412-1.548-.69-2.31-.133-.345-.195-.7-.327-1.048-3.027-9.49-7.029-18.665-8.741-22.639-.578-1.226-.927-1.975-.927-1.975a12.546,12.546,0,0,1-1.354,1.115c-2.579,2.135-8.651,7.076-16.637,13.3-.262.192-.582.468-.844.66-.654.48-1.236.947-1.877,1.5-4.944,3.791-10.484,7.979-16.237,12.2-.582.468-1.236.947-1.89,1.427-2.485,1.824-5.052,3.589-7.537,5.412a35.613,35.613,0,0,0-11.309,12.609l.012.072A35.091,35.091,0,0,0,579.915,640.877Z" transform="translate(-579.557 -571.367)" fill="#a522fc"/>
                    <g id="Group_5" data-name="Group 5" transform="translate(43.688)">
                      <path id="Path_18" data-name="Path 18" d="M590.072,624.828l4.242-3.6c1.983-4.314,3.681-8.579,5.106-12.723l-.012-.071.071-.012a27.038,27.038,0,0,1,1.024-3.045c1.718-5,3.057-9.649,4.241-13.9,2.227-8.476,3.474-14.945,3.984-17.975.174-1.134.219-1.731.278-1.814l-1.205-.161-1.134-.174a8.478,8.478,0,0,1-.22,1.289,165.157,165.157,0,0,1-3.913,17.964c-1.113,4.238-2.51,8.967-4.228,13.97-.341,1.016-.682,2.031-1.1,3.058A169.369,169.369,0,0,1,590.072,624.828Z" transform="translate(-590.072 -571.355)" fill="#fff"/>
                    </g>
                    <g id="Group_7" data-name="Group 7" transform="translate(40.708 15.256)">
                      <g id="Group_6" data-name="Group 6">
                        <path id="Path_19" data-name="Path 19" d="M611.35,600.488,592.222,609.5l0,.022-1.383.641-.784-1.526-10.132-19.548c.627-.486,1.255-.974,1.86-1.456l9.319,17.98.775,1.48,1.427-.671,17.326-8.184C610.878,598.981,611.1,599.725,611.35,600.488Z" transform="translate(-579.926 -587.636)" fill="#fff"/>
                      </g>
                    </g>
                    <g id="Group_8" data-name="Group 8" transform="translate(22.577 28.952)">
                      <path id="Path_20" data-name="Path 20" d="M612.68,603.679l17.048,26.441,1.806-1.487L614.57,602.252C613.988,602.72,613.333,603.2,612.68,603.679Z" transform="translate(-612.68 -602.252)" fill="#fff"/>
                    </g>
                  </g>
                  <path id="Path_21" data-name="Path 21" d="M611.857,607.549s10.011-2.383,16.96,4.761a28.382,28.382,0,0,1,7.635,16L624.8,638.019Z" transform="translate(-525.096 -421.112)" fill="#231f20" opacity="0.5"/>
                  <path id="Path_22" data-name="Path 22" d="M668.17,599.189a92.8,92.8,0,0,0,9.962,20.1l.067.047s.575-.04,1.546-.148c2.788-.362,8.95-1.069,15.864-1.789,1.818-.253,3.646-.451,5.53-.657,1.376-.12,2.742-.3,4.118-.415.687-.06,1.319-.11,2-.226,1.837-.141,3.665-.337,5.379-.515,2.581-.21,4.927-.437,6.822-.588-.029-.17,0-.349-.04-.574a79.028,79.028,0,0,1,.575-18.359l.047-.066-.009-.056c.394-2.452.89-4.979,1.5-7.527a29.379,29.379,0,0,0,.916-5.856,28.421,28.421,0,0,0-.728-8.656c-2.31-4.315-5-8.1-7.766-10.01a12.557,12.557,0,0,0-1.494-.907,39.73,39.73,0,0,0-6.876-3.125l-.009-.056a115.2,115.2,0,0,0-13.951-4.006c-3.207-.73-5.359-1.059-5.359-1.059C675.023,562.831,668.565,597.086,668.17,599.189Z" transform="translate(-663.94 -417.812)" fill="#231f20" opacity="0.5"/>
                  <g id="Group_11" data-name="Group 11" transform="translate(15.604 147.866)">
                    <path id="Path_23" data-name="Path 23" d="M624.591,620.668l2.36.874,20.442,7.6,3.843,1.378,3.418,1.274L664.6,635.5a.055.055,0,0,1,.066.047l3.975,1.47.68.232,8.886,3.3,2.105.744.009.056,6.317,2.232,1.558.606,6.7,2.456,4.225-3.516,9.268-7.694c-1.039-4.358-2.438-9.469-4.082-14.3a60.868,60.868,0,0,0-4.811-11.1,4.456,4.456,0,0,0-.551-.837.3.3,0,0,0-.152-.206,6.594,6.594,0,0,1-.5-.9c-.512-.61-1.033-1.277-1.47-1.783-.427-.451-.843-.844-1.325-1.286l-.009-.056a10.572,10.572,0,0,0-.89-.778,86.754,86.754,0,0,0-10.87-8.431c-1.768-1.151-3.45-2.142-4.943-3.049a11.676,11.676,0,0,0-1.494-.907c-2.854-1.72-4.773-2.73-4.773-2.73l-2.383,2.386-5.264,5.264-.056.009-.047.066-3.331,3.3,1.019-5.932.221-1.084,1.184-7.007.653-3.311-4.195-2.073-3.042-1.456-1.531-.784-4.449-2.2L635.1,568.331l-2.665-1.288-1.209-.607s-.157.435-.465,1.359c-.25.916-.546,2.246-.962,3.887a202.144,202.144,0,0,0-4.793,27.34l.009.057c-.008.291-.073.594-.081.886-.055.359-.063.651-.128.953a143.268,143.268,0,0,0-.351,17.972c0,.349.06.688.062,1.036A3.227,3.227,0,0,0,624.591,620.668Z" transform="translate(-624.322 -566.413)" fill="url(#linear-gradient-8)"/>
                    <g id="Group_10" data-name="Group 10" transform="translate(0.541)">
                      <path id="Path_24" data-name="Path 24" d="M676.246,608.08l-20.337-7.161c.051-.615.1-1.247.168-1.847l19.2,6.771,0-.009c-.109-.2-.217-.4-.337-.678l-.76-1.856c-6.983-16.685-10.533-28.367-12.343-35.49l.423-1.4,1.207.6c1.714,6.991,5.167,18.541,12.139,35.156.277.762.556,1.523.9,2.272.1.188.212.434.314.631l9.938-26.631,1.563.76L677.82,607.355l0,.018,0,0,0,.006a97.426,97.426,0,0,0,15.242,22.776l15.28-38.383c.49.284.98.568,1.484.923l-15.493,38.862q2.715,2.956,5.357,5.485l-4.015-1.52q-1.33-1.318-2.7-2.85l-7.292-.885-7.229-2.661,12.77,1.491a95.053,95.053,0,0,1-14.978-22.526Zm-.962-2.218h0l-.006-.014Z" transform="translate(-655.909 -566.412)" fill="#fff"/>
                      <path id="Path_25" data-name="Path 25" d="M645.464,610.925a8.021,8.021,0,0,0,.516.868,5.709,5.709,0,0,1,.7,1.058l-11.293,34.167-1.578-.612,11.281-34.24Z" transform="translate(-572.042 -569.214)" fill="#fff"/>
                    </g>
                  </g>
                  <path id="Path_26" data-name="Path 26" d="M588.16,454.372a90.6,90.6,0,0,0,5.26,13.322l.361.784.781-.343a87.273,87.273,0,0,0,11.105-5.573,87.467,87.467,0,0,0-11.785,3.94l1.14.441A90.562,90.562,0,0,0,588.16,454.372Z" transform="translate(-472.1 -411.493)" fill="#a30f3d"/>
                  <path id="Path_27" data-name="Path 27" d="M600.5,469.144a54.91,54.91,0,0,0,5.818,12.334l.317.515.5-.118a43.487,43.487,0,0,0,5.821-1.79,43.455,43.455,0,0,0-6.084.251l.816.4A54.892,54.892,0,0,0,600.5,469.144Z" transform="translate(-490.965 -412.423)" fill="#a30f3d"/>
                </g>
              </g>
            </g>
          </g>
        </g>
        <path id="Path_35" data-name="Path 35" d="M1251.64,195.1v4.8a25.892,25.892,0,0,1,28.528,17.728l13.443,42.121c18.947-1.312,40.687-5.166,65.24-12.956l-12.9-40.434A493.547,493.547,0,0,1,1251.64,195.1Z" transform="translate(-1251.64 -132.195)" fill="#fff"/>
        <path id="Path_36" data-name="Path 36" d="M1255.665,335.57a25.873,25.873,0,0,0,16.785-32.515L1259.734,263.2c18.944-1.318,40.687-5.174,65.237-12.96l30.531,95.688a25.874,25.874,0,0,1-16.785,32.515l-120.954,38.592V347.663Z" transform="translate(-1217.763 -135.718)" fill="#fff" opacity="0.2"/>
      </g>
    </g>
    <g id="sepatu_kiri" data-name="sepatu kiri" transform="translate(332.205 404.981)">
      <g id="Group_21" data-name="Group 21">
        <path id="Path_37" data-name="Path 37" d="M988.666,571.359h16.292l1.954-11.168h-18.17Z" transform="translate(-985.437 -560.191)" fill="url(#linear-gradient-9)"/>
        <path id="Path_38" data-name="Path 38" d="M953.639,563.561s3.6,6.982,10.432,6.541a7.212,7.212,0,0,0,6.287-3.646,2.5,2.5,0,0,1,3.67-.806c4.266,3.123,12.643,8.776,18.945,10.037,8.818,1.763,15.578,1.372,14.7,6.466s-8.132,4.7-8.132,4.7H965.381a2.451,2.451,0,0,1-1.734-.718l-.143-.143a2.452,2.452,0,0,0-3.469,0h0a2.452,2.452,0,0,1-1.734.718h-4.2a3.749,3.749,0,0,1-3.749-3.749v-13.5a6.936,6.936,0,0,1,3.284-5.9Z" transform="translate(-950.355 -560.402)" fill="#1d164d"/>
        <path id="Path_39" data-name="Path 39" d="M1007.75,582.974c-.013.132-.01.252-.035.392-.881,5.094-8.132,4.7-8.132,4.7H965.427a2.451,2.451,0,0,1-1.734-.718l-.143-.143a2.452,2.452,0,0,0-3.469,0,2.452,2.452,0,0,1-1.734.718h-4.2a3.748,3.748,0,0,1-3.749-3.749v-1.2Z" transform="translate(-950.401 -561.616)" fill="#5d5d8c"/>
      </g>
    </g>
    <g id="kursi" transform="translate(260.48 283.016)">
      <g id="Group_22" data-name="Group 22" transform="translate(0)">
        <rect id="Rectangle_2" data-name="Rectangle 2" width="107.831" height="22.383" rx="9.238" fill="url(#linear-gradient-10)"/>
        <rect id="Rectangle_3" data-name="Rectangle 3" width="51.162" height="10.303" transform="translate(28.335 22.383)" fill="url(#linear-gradient-11)"/>
        <path id="Rectangle_4" data-name="Rectangle 4" d="M15.026,0H56.21A15.026,15.026,0,0,1,71.236,15.026v0a0,0,0,0,1,0,0H0a0,0,0,0,1,0,0v0A15.026,15.026,0,0,1,15.026,0Z" transform="translate(18.297 133.412)" fill="url(#linear-gradient-12)"/>
        <rect id="Rectangle_5" data-name="Rectangle 5" width="17.587" height="100.725" transform="translate(45.122 32.687)" fill="url(#linear-gradient-13)"/>
      </g>
    </g>
    <g id="decor" transform="translate(234.617 13.728)">
      <g id="Group_30" data-name="Group 30">
        <g id="Group_23" data-name="Group 23" transform="translate(0 20.413)">
          <path id="Path_40" data-name="Path 40" d="M863.648,259.155l.309-.885a60.13,60.13,0,0,1-10.149-4.667l-.471.811A61.122,61.122,0,0,0,863.648,259.155Zm-19.433-11.486.649-.678a32.577,32.577,0,0,1-6.657-8.8l-.836.423A33.507,33.507,0,0,0,844.215,247.668Zm-9.836-20,.936-.063c-.044-.653-.066-1.318-.066-1.977a35.094,35.094,0,0,1,1.24-9l-.906-.241a36.04,36.04,0,0,0-1.271,9.244C834.311,226.312,834.334,227,834.379,227.672Zm180-14.448a79.521,79.521,0,0,0,9.65-.545l-.115-.93a81.317,81.317,0,0,1-11.165.524l-.015.938Q1013.562,213.225,1014.377,213.224Zm-12.915-.687.092-.934c-3.438-.336-7.188-.806-11.144-1.4l-.14.927C994.244,211.726,998.008,212.2,1001.462,212.537Zm33.6-2.375c3.6-1.115,7.18-2.389,10.629-3.789l-.353-.868c-3.424,1.389-6.974,2.656-10.552,3.762Zm-55.9-.9.171-.922c-3.412-.627-7.023-1.334-11.039-2.16l-.188.919C972.121,207.927,975.737,208.634,979.155,209.263Zm-138.588-2.985.407-.781a22.621,22.621,0,0,1,6.569-7.622l-.558-.753a23.526,23.526,0,0,0-6.838,7.936l-.413.789Zm116.522-1.516.2-.917q-5.473-1.191-10.992-2.423l-.2.916Q951.605,203.559,957.089,204.762Zm98.857-3.092c3.35-1.722,6.647-3.611,9.794-5.613l-.5-.791c-3.124,1.987-6.393,3.861-9.719,5.571ZM935.1,199.909l.2-.915q-5.535-1.211-11.014-2.353l-.19.918Q929.563,198.692,935.1,199.909Zm-22.036-4.536.172-.922c-3.99-.748-7.623-1.375-11.1-1.919l-.145.926C905.461,194,909.086,194.626,913.067,195.373ZM857.5,193.16a56.106,56.106,0,0,1,10.979-1.868l-.073-.935a57.05,57.05,0,0,0-11.164,1.9Zm33.355-1.194.1-.932c-4-.436-7.786-.722-11.253-.851l-.035.937C883.115,191.248,886.878,191.533,890.855,191.966Zm184.116-2.409c2.987-2.323,5.87-4.8,8.571-7.357l-.645-.681c-2.677,2.539-5.538,4.994-8.5,7.3Zm16.356-15.55a69.494,69.494,0,0,0,6.749-9.122l-.813-.468a68.64,68.64,0,0,1-6.65,8.982Z" transform="translate(-834.311 -164.417)" fill="#fff"/>
        </g>
        <g id="Group_26" data-name="Group 26" transform="translate(115.513 32.819)">
          <g transform="matrix(1, 0, 0, 1, -350.13, -46.55)" filter="url(#Path_41)">
            <path id="Path_41-2" data-name="Path 41" d="M940.435,230.1s6.666,4.275,12.272-2.587a2.411,2.411,0,0,0,.028-.262,25.455,25.455,0,0,0,9.787,2.147c.2.019.394.019.591.019a24.477,24.477,0,0,0,3.009-.178,25.879,25.879,0,0,0,20.39-14.634,25.377,25.377,0,0,0,2.381-8.822,22.324,22.324,0,0,0,.1-2.25,25.886,25.886,0,0,0-51.74-1.294c-.028.431-.038.862-.038,1.294a25.888,25.888,0,0,0,11.315,21.4S947.279,230.1,940.435,230.1Z" transform="translate(-587.09 -131.1)" fill="url(#linear-gradient-14)"/>
          </g>
          <g id="Group_24" data-name="Group 24" transform="translate(12.681 10.695)">
            <path id="Path_42" data-name="Path 42" d="M957.418,206.5h-5.362v3.615h5.8l.834,6.754H962.3l-.833-6.754h6.713l.833,6.754h3.615l-.834-6.754h5.363V206.5h-5.8l-.913-7.071h5.362v-3.615h-5.8l-.834-6.754h-3.615l.833,6.754h-6.673l-.834-6.754h-3.615l.834,6.754h-5.323l-.04,3.615h5.8Zm3.615,0-.874-7.071h6.673l.914,7.071Z" transform="translate(-950.744 -189.058)" fill="#fff"/>
          </g>
          <g id="Group_25" data-name="Group 25" transform="translate(25.303 28.134)" opacity="0.2">
            <path id="Path_43" data-name="Path 43" d="M963.7,207.66a25.377,25.377,0,0,1-2.381,8.822V211.26H940.93v19.856a24.478,24.478,0,0,1-3.009.178c-.2,0-.394,0-.591-.019V207.66Z" transform="translate(-937.33 -207.66)" fill="#fff"/>
          </g>
          <path id="Path_44" data-name="Path 44" d="M972.9,202.315h18.29V178.85A25.889,25.889,0,0,0,972.9,202.315Z" transform="translate(-972.863 -177.725)" fill="#fff" opacity="0.2"/>
        </g>
        <g id="Group_28" data-name="Group 28" transform="translate(6.249 34.659)">
          <g transform="matrix(1, 0, 0, 1, -240.87, -48.39)" filter="url(#Path_45)">
            <path id="Path_45-2" data-name="Path 45" d="M1073.265,196.357a16.734,16.734,0,1,0,1.393-6.695A16.751,16.751,0,0,0,1073.265,196.357Z" transform="translate(-832.4 -131.23)" fill="url(#linear-gradient-15)"/>
          </g>
          <g id="Group_27" data-name="Group 27" transform="translate(8.127 20.769)">
            <path id="Path_46" data-name="Path 46" d="M1090.556,207.612a9.9,9.9,0,0,0,8.543-4.936.606.606,0,0,0-1.049-.607,8.649,8.649,0,0,1-14.989,0,.606.606,0,0,0-1.05.607A9.9,9.9,0,0,0,1090.556,207.612Z" transform="translate(-1081.931 -201.767)" fill="#fff"/>
          </g>
          <ellipse id="Ellipse_6" data-name="Ellipse 6" cx="1.283" cy="2.128" rx="1.283" ry="2.128" transform="translate(20.319 11.452)" fill="#fff"/>
          <ellipse id="Ellipse_7" data-name="Ellipse 7" cx="1.283" cy="2.128" rx="1.283" ry="2.128" transform="translate(10.618 11.452)" fill="#fff"/>
        </g>
        <g id="Group_29" data-name="Group 29" transform="translate(242.941)">
          <path id="Path_47" data-name="Path 47" d="M816.916,149.77l-2.031,8.047-2.656-11.406-10.937-7.656,40.781-15.312L828.6,157.817Z" transform="translate(-801.291 -123.442)" fill="url(#linear-gradient-16)"/>
          <path id="Path_48" data-name="Path 48" d="M818.572,158.606l2.031-8.047,11.445-14.492L815.916,147.2Z" transform="translate(-804.979 -124.232)" fill="#4099f1"/>
        </g>
      </g>
    </g>
    <g id="orang" transform="translate(242.387 71.733)">
      <g id="Group_42" data-name="Group 42">
        <g id="Group_39" data-name="Group 39">
          <path id="Path_49" data-name="Path 49" d="M977.151,287.242,986.4,284.5l1.922-.581,11.887-3.534,4.2-3.375,23.662,1.631,3.975,3.994,9.337,3.534,3.722,1.406h0l5.578,2.109a23.274,23.274,0,0,1,9.75,6.937V296.6l-5.025-23.287a8.264,8.264,0,0,0-8.184-6.525l-1.387-.037a2.989,2.989,0,0,1-2.906-3.244l.441-4.9a4.434,4.434,0,0,1,4.894-4.022l7.837.853a13.235,13.235,0,0,1,10.772,7.978l30.234,70.949c5.016,11.765-8.362,22.828-18.975,15.694l-8.55-5.756-24.253-16.3.178,34.678v24.393h-65.68v-4.837l-6.937-.787a11.671,11.671,0,0,1-10.341-11.156l-2.194-59.643A23.526,23.526,0,0,1,977.151,287.242Z" transform="translate(-960.346 -207.761)" fill="url(#linear-gradient-17)"/>
          <g id="Group_31" data-name="Group 31" transform="translate(27.514)">
            <path id="Path_50" data-name="Path 50" d="M1054.935,241.478s10.46-4.809,10.029-16.441-15.078-19.817-29.941-19.817-30.588,8.832-28.433,34.68,17.758,16.743,20.526,27.692C1027.115,267.593,1044.854,239.428,1054.935,241.478Z" transform="translate(-1006.391 -205.22)" fill="url(#linear-gradient-18)"/>
            <path id="Path_51" data-name="Path 51" d="M1064.011,236.5s.963,21.515-.642,28.334a9.762,9.762,0,0,1-7.46,7.72v4.95l-5.612,8.75-2.252,5.053-3.205-4.9-12.593-10.533V257.034a6.668,6.668,0,0,1-5.7-5.535c-1.215-5.285.842-8.362,3.97-7.88s3.69,4.451,3.69,4.451,3.85-3.088,1.965-10.748C1036.177,237.321,1051.657,245.164,1064.011,236.5Z" transform="translate(-1015.693 -206.633)" fill="url(#linear-gradient-19)"/>
            <path id="Path_52" data-name="Path 52" d="M1053.553,274.417s-10.829,3.068-18.408-8.121c0,0,3.128,13.071,18.408,13.071Z" transform="translate(-1013.338 -208.495)" fill="#332c57"/>
          </g>
          <path id="Path_55" data-name="Path 55" d="M1030.906,288.988l7.051,6.658,2.534-11.411-3.974-4Z" transform="translate(-968.788 -209.367)" fill="#fff"/>
          <path id="Path_56" data-name="Path 56" d="M1063.749,289.034l-7.933,9.113-8.864-16.273,4.2-3.373Z" transform="translate(-1007.088 -209.258)" fill="#fff"/>
          <path id="Path_57" data-name="Path 57" d="M1000.643,312.775l1.894,51.205.3,8.437a11.671,11.671,0,0,0,10.341,11.156l6.937.787.909.084,47.371,4.537a1.022,1.022,0,0,0,.113-.009l11.887-1.7a9.583,9.583,0,0,0,7.434-5.625l1.753-3.975.469-1.069a10,10,0,0,0,9.928,2.184,1.053,1.053,0,0,0,.188-1.931,74.968,74.968,0,0,1-9.534-6.487,7.4,7.4,0,0,0-7.922-.741,6.122,6.122,0,0,0-.637.356l-8.175,5.25-48.449-15.862h-.009c0-.009.009-.009.009-.028,3.6-17.718,7.631-39.7,7.3-47.737-.591-14.315-12.994-22.931-12.994-22.931l-2.325.694A23.526,23.526,0,0,0,1000.643,312.775Z" transform="translate(-1000.627 -209.895)" fill="url(#linear-gradient-20)"/>
          <g id="Group_32" data-name="Group 32" transform="translate(60.527 163.138)">
            <rect id="Rectangle_6" data-name="Rectangle 6" width="1.175" height="16.293" transform="translate(1.088 15.532) rotate(-157.829)" fill="#c9e2f4"/>
          </g>
          <path id="Path_58" data-name="Path 58" d="M1084.928,368.987l.306,8.43a11.66,11.66,0,0,0,10.334,11.157l6.937.788.917.082a15.87,15.87,0,0,0,.658-4.573,16.164,16.164,0,0,0-16.166-16.166A15.635,15.635,0,0,0,1084.928,368.987Z" transform="translate(-1083.021 -214.898)" fill="#c9e2f4"/>
          <path id="Path_59" data-name="Path 59" d="M964.834,395.891V413.8c0,.271,0,.541.011.811.012.2.012.4.023.588a25.961,25.961,0,0,0,.424,3.328c.106.529.235,1.046.364,1.563a24.286,24.286,0,0,0,11.663,14.908l14.849,8.218-4.021,106.694h18.246l20.9-112.42,11.9,8.959-.7,103.461h18.165l21.879-105.271a21.9,21.9,0,0,0-9.147-22.585l-25.371-17.224-.493-.329-.729-.493-4.444-3.021-.871-.588-.87-.589-6.09-4.138-5.267.023-46.957.153Z" transform="translate(-945.35 -216.583)" fill="url(#linear-gradient-21)"/>
          <g id="Group_38" data-name="Group 38" transform="translate(19.484 183.223)">
            <g id="Group_33" data-name="Group 33">
              <path id="Path_60" data-name="Path 60" d="M1008.19,400.082v1.176h73.516l-.87-.588-.87-.588Z" transform="translate(-1008.19 -400.082)" fill="#5d5d8c"/>
            </g>
            <g id="Group_34" data-name="Group 34" transform="translate(0.011 0.588)">
              <path id="Path_61" data-name="Path 61" d="M1070.834,415.511a14.821,14.821,0,0,0,14.777-14.8h-1.176a13.644,13.644,0,0,1-13.6,13.625Z" transform="translate(-1070.832 -400.71)" fill="#5d5d8c"/>
            </g>
            <g id="Group_35" data-name="Group 35" transform="translate(62.664 0.2)">
              <path id="Path_62" data-name="Path 62" d="M1002.146,401.071c.059.071.118.142.176.2a14.808,14.808,0,0,0,11.04,4.938,17.582,17.582,0,0,0,5.3-1.094l-.493-.329-.729-.493a15.006,15.006,0,0,1-4.08.741,13.588,13.588,0,0,1-9.381-3.762,12.679,12.679,0,0,1-.941-.976Z" transform="translate(-1002.146 -400.296)" fill="#5d5d8c"/>
            </g>
            <g id="Group_36" data-name="Group 36" transform="translate(67.307 30.759)">
              <path id="Path_63" data-name="Path 63" d="M1013.122,546.36l.79-103.755-12.813-9.712-.711.937,12.344,9.356-.785,103.165Z" transform="translate(-1000.388 -432.892)" fill="#5d5d8c"/>
            </g>
            <g id="Group_37" data-name="Group 37" transform="translate(0.459 18.717)">
              <path id="Path_64" data-name="Path 64" d="M1050.9,421.611,1082.7,439.2l-4.009,106.329,1.176.047,4.032-107.058-33.354-18.469C1050.647,420.577,1050.776,421.094,1050.9,421.611Z" transform="translate(-1050.541 -420.048)" fill="#5d5d8c"/>
            </g>
          </g>
          <path id="Path_65" data-name="Path 65" d="M1029.9,426.49l-18-16.632,22.637,14.119A13.837,13.837,0,0,1,1041,434.538l.816,9.537-7.578-5.706A13.837,13.837,0,0,0,1029.9,426.49Z" transform="translate(-952.298 -217.47)" fill="#332c57"/>
          <path id="Path_66" data-name="Path 66" d="M1042.355,571.359h16.292l1.955-11.168h-18.17Z" transform="translate(-999.632 -226.868)" fill="url(#linear-gradient-9)"/>
          <path id="Path_67" data-name="Path 67" d="M1007.328,563.561s3.6,6.982,10.432,6.541a7.212,7.212,0,0,0,6.287-3.646,2.5,2.5,0,0,1,3.669-.806c4.266,3.123,12.643,8.776,18.946,10.037,8.818,1.763,15.578,1.372,14.7,6.466s-8.132,4.7-8.132,4.7H1019.07a2.45,2.45,0,0,1-1.734-.718l-.144-.143a2.452,2.452,0,0,0-3.469,0h0a2.453,2.453,0,0,1-1.734.718h-4.2a3.748,3.748,0,0,1-3.749-3.749v-13.5a6.936,6.936,0,0,1,3.284-5.9Z" transform="translate(-964.55 -227.079)" fill="#1d164d"/>
          <path id="Path_68" data-name="Path 68" d="M1061.439,582.974c-.012.132-.009.252-.034.392-.881,5.094-8.132,4.7-8.132,4.7h-34.156a2.45,2.45,0,0,1-1.734-.718l-.143-.143a2.452,2.452,0,0,0-3.469,0,2.453,2.453,0,0,1-1.734.718h-4.2a3.748,3.748,0,0,1-3.749-3.749v-1.2Z" transform="translate(-964.596 -228.293)" fill="#5d5d8c"/>
          <path id="Path_69" data-name="Path 69" d="M1000.627,394.327a1.021,1.021,0,0,0,.112-.009l11.887-1.7a9.583,9.583,0,0,0,7.434-5.625l1.753-3.975.469-1.069a10,10,0,0,0,9.928,2.184,1.053,1.053,0,0,0,.187-1.931,74.968,74.968,0,0,1-9.534-6.487,7.4,7.4,0,0,0-7.922-.741,6.115,6.115,0,0,0-.637.356l-8.175,5.25Z" transform="translate(-932.86 -215.239)" fill="url(#linear-gradient-23)"/>
          <path id="Path_70" data-name="Path 70" d="M1019.045,240.952h1.315a11.378,11.378,0,0,1,11.378,11.377v17.554a12.542,12.542,0,0,1-13.828,12.476l-2.9-.3a6.688,6.688,0,0,1-6-6.652v-.053a6.851,6.851,0,0,1,7.475-6.822l2.272.208a5.431,5.431,0,0,0,5.926-5.407V258a5.43,5.43,0,0,0-4.18-5.284l-4.882-1.156-.054-8.39Z" transform="translate(-939.503 -206.911)" fill="url(#linear-gradient-24)"/>
          <path id="Path_71" data-name="Path 71" d="M1022.626,277.246v-.053a6.851,6.851,0,0,1,7.476-6.822s6.482,6.881-1.474,13.528A6.688,6.688,0,0,1,1022.626,277.246Z" transform="translate(-953.124 -208.748)" fill="#e51757"/>
          <path id="Path_72" data-name="Path 72" d="M1003.093,277h0l-.8-3.693a8.264,8.264,0,0,0-8.184-6.525l-1.388-.037a2.99,2.99,0,0,1-2.906-3.244l.441-4.9a4.434,4.434,0,0,1,4.894-4.022l7.837.853a13.235,13.235,0,0,1,10.772,7.978l3.7,8.686Z" transform="translate(-907.23 -207.761)" fill="url(#linear-gradient-25)"/>
          <path id="Path_73" data-name="Path 73" d="M995.4,292.24a23.274,23.274,0,0,1,9.255,6.733l4.9,22.739Z" transform="translate(-904.559 -210.117)" fill="#332c57"/>
        </g>
        <g id="Group_41" data-name="Group 41" transform="translate(75.929 74.866)">
          <path id="Path_74" data-name="Path 74" d="M937.949,394.44h41.446a11.637,11.637,0,0,0,8.334-3.506l15.665-16.022a1.4,1.4,0,0,0-1-2.391h-3.816a2.965,2.965,0,0,0-2.147.919l-2.991,3.178H982.3l-.337-1.734a2.952,2.952,0,0,0-2.9-2.362H961.958a7.443,7.443,0,0,0-5.409,2.316Z" transform="translate(-920.882 -290.002)" fill="url(#linear-gradient-26)"/>
          <path id="Path_75" data-name="Path 75" d="M937.949,394.44h14.484a11.637,11.637,0,0,0,8.334-3.506l15.665-16.022a1.4,1.4,0,0,0-1-2.391h-3.816a2.965,2.965,0,0,0-2.147.919l-2.991,3.178H955.4c-.037.038-.084.075-.122.112Z" transform="translate(-893.92 -290.002)" fill="url(#linear-gradient-27)"/>
          <path id="Path_76" data-name="Path 76" d="M1006.142,374.964l-16.8,17.7h0a1.952,1.952,0,0,1-.454-3.042l13.36-14.081a3.192,3.192,0,0,1,3.891-.579Z" transform="translate(-970.476 -290.128)" fill="url(#linear-gradient-28)"/>
          <g id="Group_40" data-name="Group 40">
            <path id="Path_77" data-name="Path 77" d="M1021.911,367.018h1.406c0-12.784-14.574-26.931-33.025-44.841-18.161-17.628-9.97-36.918-9.885-37.111l-1.286-.567c-.09.2-8.691,20.358,10.191,38.687C1007.525,340.865,1021.911,354.829,1021.911,367.018Z" transform="translate(-977.089 -284.499)" fill="#fff"/>
          </g>
        </g>
      </g>
    </g>
    <g id="meja" transform="translate(142.66 126.015)">
      <g id="Group_69" data-name="Group 69">
        <path id="Rectangle_7" data-name="Rectangle 7" d="M4.584,0H67.527a4.584,4.584,0,0,1,4.584,4.584v0a0,0,0,0,1,0,0H0a0,0,0,0,1,0,0v0A4.584,4.584,0,0,1,4.584,0Z" transform="translate(259.846 120.419)" fill="#c9e2f4"/>
        <rect id="Rectangle_8" data-name="Rectangle 8" width="436.499" height="9.55" rx="4.775" transform="translate(8.885 125.002)" fill="url(#linear-gradient-29)"/>
        <path id="Path_78" data-name="Path 78" d="M1085.381,400.682a4.776,4.776,0,0,1,4.776-4.776h106.7v9.55h-106.7A4.775,4.775,0,0,1,1085.381,400.682Z" transform="translate(-1076.496 -270.904)" fill="#332c57"/>
        <path id="Path_79" data-name="Path 79" d="M1077.209,406.071l31.971,168.468a3.019,3.019,0,0,0,2.966,2.457h0a3.02,3.02,0,0,0,3-3.4l-21.3-167.854Z" transform="translate(-987.149 -271.519)" fill="#332c57"/>
        <path id="Path_80" data-name="Path 80" d="M1211.232,406.071l-31.971,168.468a3.019,3.019,0,0,1-2.966,2.457h0a3.02,3.02,0,0,1-3-3.4l21.3-167.854Z" transform="translate(-1173.274 -271.519)" fill="#332c57"/>
        <path id="Path_81" data-name="Path 81" d="M738.679,406.071,770.65,574.539A3.019,3.019,0,0,0,773.616,577h0a3.02,3.02,0,0,0,3-3.4l-21.3-167.854Z" transform="translate(-331.253 -271.519)" fill="url(#linear-gradient-30)"/>
        <path id="Path_82" data-name="Path 82" d="M872.7,406.071,840.731,574.539A3.019,3.019,0,0,1,837.765,577h0a3.02,3.02,0,0,1-3-3.4l21.3-167.854Z" transform="translate(-517.377 -271.519)" fill="url(#linear-gradient-31)"/>
        <path id="Rectangle_9" data-name="Rectangle 9" d="M7.229,0H18.336a7.229,7.229,0,0,1,7.229,7.229v0a0,0,0,0,1,0,0H0a0,0,0,0,1,0,0v0A7.229,7.229,0,0,1,7.229,0Z" transform="translate(215.815 117.775)" fill="#fff"/>
        <g id="Group_43" data-name="Group 43" transform="translate(211.487)">
          <rect id="Rectangle_10" data-name="Rectangle 10" width="165.29" height="96.089" rx="8.04" transform="translate(0)" fill="url(#linear-gradient-32)"/>
          <path id="Path_83" data-name="Path 83" d="M975.061,270.1v81.011a7.539,7.539,0,0,0,7.532,7.553h4.761a7.54,7.54,0,0,1-7.533-7.553V270.1a7.522,7.522,0,0,1,7.533-7.532h-4.761A7.521,7.521,0,0,0,975.061,270.1Z" transform="translate(-975.061 -262.569)" fill="#c9e2f4"/>
          <ellipse id="Ellipse_8" data-name="Ellipse 8" cx="6.612" cy="6.612" rx="6.612" ry="6.612" transform="translate(83.042 24.86)" fill="#4099f1"/>
          <path id="Path_84" data-name="Path 84" d="M906.084,385.681h-37.73l-21.157-60.3h37.73Z" transform="translate(-773.921 -266.496)" fill="url(#linear-gradient-33)"/>
          <path id="Path_85" data-name="Path 85" d="M912.08,395.52h-69.4A5.819,5.819,0,0,1,848.5,389.7h57.761A5.819,5.819,0,0,1,912.08,395.52Z" transform="translate(-775.685 -270.517)" fill="url(#linear-gradient-34)"/>
          <path id="Path_86" data-name="Path 86" d="M896.088,325.383v37.2h13.053Z" transform="translate(-822.812 -266.496)" fill="url(#linear-gradient-35)"/>
        </g>
        <g id="Group_68" data-name="Group 68" transform="translate(33.058 48.621)">
          <g id="Group_67" data-name="Group 67">
            <g id="Group_66" data-name="Group 66">
              <g id="Group_65" data-name="Group 65">
                <path id="Path_87" data-name="Path 87" d="M1141.092,336.564s-2.734-8.973,6.947-12.507c0,0,1.985,5.586-2.305,9.424l-1.117-.97.216,1.529Z" transform="translate(-1113.093 -315.034)" fill="#9c38fc"/>
                <path id="Path_88" data-name="Path 88" d="M1144.154,360.648l.342.2.5.289,4.324,2.511.815.459.723.421,2.1,1.222a.013.013,0,0,1,.013.013l.841.487.145.079,1.879,1.091.447.249v.013l1.341.749.328.2,1.419.815,1.09-.63,2.392-1.38,2.352-1.354.459-.277.2-.1v-.013l.394-.21,1.091-.644,2.024-1.169,1.774-1.026,2.536-1.472.052-.026.855-.487-1.039-.6-1.156-.657-1.091-.631-.446-.249-.46-.29-1.629-.933-1.065-.6-1.156-.67-.329-.184-3.469-2.011-.763-.433-.381-.224-.92-.525-.224-.132-.985-.564-.1-.066-2.011,1.156-1.354.775-.433.249-.867.5-.578.329-.7.42-2.142,1.236-.013.013-.67.381-.013.013-.867.5-.368.2-.328.185v.013l-.131.066-.013.013-.408.236-.631.368-3.311,1.918Z" transform="translate(-1142.391 -316.772)" fill="#312368"/>
                <path id="Path_89" data-name="Path 89" d="M1145.633,352.1s.195-1.458.616-3.657,1.082-5.1,1.944-7.959c.427-1.43.922-2.836,1.418-4.145.517-1.3,1.059-2.488,1.563-3.49a25.354,25.354,0,0,1,1.374-2.334l.575-.857-.633.816a25.277,25.277,0,0,0-1.543,2.248c-.576.973-1.206,2.133-1.819,3.409-.592,1.285-1.192,2.672-1.722,4.086-1.072,2.825-1.942,5.721-2.526,7.914s-.887,3.689-.887,3.689Z" transform="translate(-1120.774 -315.384)" fill="#7b1ac6"/>
                <path id="Path_90" data-name="Path 90" d="M1150.036,349.5a8.417,8.417,0,0,0,.368,1.617c.053.158.105.315.171.473a9.87,9.87,0,0,0,.644,1.367,8.293,8.293,0,0,0,.644,1.026.887.887,0,0,0,.092.144,3.523,3.523,0,0,0,.341.513.013.013,0,0,0,.013.013c.013.026.039.039.052.066.316.2.789.486,1.3.815.171.1.342.21.526.315.1.079.223.144.328.223a17.18,17.18,0,0,1,1.984,1.341,7.056,7.056,0,0,0,1.354.079h.88c.2,0,.408,0,.631-.013.3,0,.631,0,.959-.013h.066c.172,0,.342,0,.513-.013.276,0,.565-.013.841-.013a28.1,28.1,0,0,0,3.824-.262,1.8,1.8,0,0,0,.355-.644c.184-.395.394-.946.631-1.59.066-.184.144-.382.21-.578-.039-.21-.079-.434-.118-.657a16.83,16.83,0,0,0-.959-3.022c-.158-.381-.3-.736-.421-1.09a1,1,0,0,1-.066-.211,10.274,10.274,0,0,1-.578-3.442,14.283,14.283,0,0,1,.631-3.758c.262-1.065.67-2.287,1.116-3.68,1.814-5.52-.972-3.614-3.811-8.779a5.192,5.192,0,0,1-.618-2.616c.053-4.442,4.587-9.318-.013-11.84a4.668,4.668,0,0,0-.512-.263.4.4,0,0,0-.131-.066,4.423,4.423,0,0,0-.657-.25c-6.02-1.918-7.662,7.438-7.767,8v.026l-1.59,2.616s1.262,15.848-.841,20.58v.013A6.377,6.377,0,0,0,1150.036,349.5Z" transform="translate(-1140.177 -314.432)" fill="#5c14e2"/>
                <g id="Group_46" data-name="Group 46" transform="translate(14.261 0.259)">
                  <g id="Group_45" data-name="Group 45">
                    <g id="Group_44" data-name="Group 44" transform="translate(2.563)">
                      <path id="Path_91" data-name="Path 91" d="M1155.579,340.465a16.771,16.771,0,0,0,.171,2.221c.052.342.118.7.184,1.052.079.407.171.828.263,1.248.3,1.3.683,2.616,1.077,3.838.131.394.262.788.395,1.169.105.29.21.565.3.841.434,1.183.828,2.182,1.1,2.878.185.434.329.749.395.92l.775-.328c-.315-.736-.71-1.708-1.13-2.812-.211-.578-.434-1.182-.644-1.813v-.013c-.132-.382-.263-.762-.395-1.157-.236-.762-.473-1.537-.683-2.326-.144-.5-.262-1.012-.367-1.511-.105-.421-.2-.828-.263-1.223a15.865,15.865,0,0,1-.328-3.6,3.545,3.545,0,0,1,.789-2.352c.013-.039.052-.066.079-.092a5.362,5.362,0,0,0,.591-.644.276.276,0,0,0,.053-.079c1.485-2.024.592-4.534-.263-6.978a3.513,3.513,0,0,0-.132-.342c-.026-.092-.066-.184-.092-.289-.052-.144-.1-.29-.157-.447v-.013a.046.046,0,0,1-.013-.026,12.477,12.477,0,0,1-.788-3.837,9.594,9.594,0,0,1,.2-1.906q.079-.413.2-.828a27.445,27.445,0,0,1,3.1-6.991.405.405,0,0,0-.131-.066,4.418,4.418,0,0,0-.657-.25,28.562,28.562,0,0,0-3.115,7.018c-.079.328-.157.67-.21,1a10.82,10.82,0,0,0-.21,2.024,12.484,12.484,0,0,0,.618,3.443c.1.341.223.7.341,1.038.092.249.171.5.263.749a1.17,1.17,0,0,1,.066.2c.907,2.524,1.616,4.718-.013,6.4-.013.013-.013.026-.039.026a.663.663,0,0,1-.158.171,2.375,2.375,0,0,0-.381.434A5.627,5.627,0,0,0,1155.579,340.465Z" transform="translate(-1155.579 -314.708)" fill="#461baf"/>
                    </g>
                    <path id="Path_92" data-name="Path 92" d="M1152.976,335.79a8.806,8.806,0,0,0,1.29,1.683,5.068,5.068,0,0,0,1.786,1.313l.038.015.057,0a8.65,8.65,0,0,0,3.245-.336,5.131,5.131,0,0,0,1.479-.75,2.814,2.814,0,0,0,.968-1.306,4.336,4.336,0,0,1-2.63,1.362,13.541,13.541,0,0,1-3,.232l.1.02a6.916,6.916,0,0,1-1.68-.964Z" transform="translate(-1152.172 -316.026)" fill="#461baf"/>
                    <path id="Path_93" data-name="Path 93" d="M1154.821,319.438a6.035,6.035,0,0,0,.52,1.882,7.37,7.37,0,0,0,1.006,1.7l.113.142h.188a6.257,6.257,0,0,0,2.922-.681,3.589,3.589,0,0,0,1.852-2.266,7,7,0,0,1-.464.54,5.463,5.463,0,0,1-.516.447,4.814,4.814,0,0,1-1.175.629,8.689,8.689,0,0,1-2.608.531l.3.142A17.2,17.2,0,0,1,1154.821,319.438Z" transform="translate(-1153.484 -315.004)" fill="#461baf"/>
                    <path id="Path_94" data-name="Path 94" d="M1155.283,327.2a11.047,11.047,0,0,0,1.82,1.755,7.037,7.037,0,0,0,2.288,1.237l.088.025.083-.016a6.179,6.179,0,0,0,1.992-.719,3.324,3.324,0,0,0,.852-.667,1.891,1.891,0,0,0,.293-.464,1.145,1.145,0,0,0,.088-.525,2.277,2.277,0,0,1-1.483,1.117,13.839,13.839,0,0,1-1.872.451l.17.009a12.819,12.819,0,0,1-2.125-1.021C1156.753,328,1156.046,327.57,1155.283,327.2Z" transform="translate(-1155.283 -315.489)" fill="#461baf"/>
                  </g>
                </g>
                <path id="Path_95" data-name="Path 95" d="M1150.227,355.605v.316s.15.1.415.265c1.1.682,4.057,2.528,4.141,2.694a62.364,62.364,0,0,0,9.063-.232,12.56,12.56,0,0,0,1.2-2.811,15.709,15.709,0,0,0-1.081-3.675,11.3,11.3,0,0,1-.432-8.514c-1.68-2.561-3.842-5.006-6.17-5.5-5.222-1.131-6.919,3.06-7.134,6.1C1150.045,346.958,1150.194,354.008,1150.227,355.605Z" transform="translate(-1138.455 -315.902)" fill="#231f20" opacity="0.5"/>
                <path id="Path_96" data-name="Path 96" d="M1162.135,353.849a21.3,21.3,0,0,0,1.472,4.927l.013.013.342.2.5.289,3.6,2.077.775.447.762.446.723.421,2.1,1.222a.013.013,0,0,1,.013.013l.841.473v.013l.145.079a14.129,14.129,0,0,1-.369-2.786c-.013-.223-.013-.473-.013-.723v-.013c0-.486.026-1,.066-1.538,0-.039.013-.079.013-.131a18.166,18.166,0,0,1,.841-4.127l.013-.012v-.013c.185-.539.395-1.091.631-1.643a6.758,6.758,0,0,0,.434-1.288,6.521,6.521,0,0,0,.171-1.984c-.131-2.313-1.314-4.363-1.577-6.952v-.013a11.37,11.37,0,0,1,1.9-7.214,11.931,11.931,0,0,0,1.814-7.885c-.039-.236-.092-.46-.144-.683a7.327,7.327,0,0,0-2.668-4.284,4.939,4.939,0,0,0-2.852-1.025,4.89,4.89,0,0,0-1.287.171,7.708,7.708,0,0,0-.986.394c-5.1,2.721,2.9,14.351-3.955,19.963C1161.689,345.78,1161.5,350.38,1162.135,353.849Z" transform="translate(-1161.857 -314.915)" fill="#c878f1"/>
                <g id="Group_47" data-name="Group 47" transform="translate(5.093 7.237)">
                  <path id="Path_97" data-name="Path 97" d="M1166.676,355.4c.013.171.039.341.052.5.026.262.053.512.079.762q.138,1.261.316,2.365c.013.079.026.171.039.249.118.775.263,1.472.394,2.077l.775.447.762.446a1.594,1.594,0,0,1-.066-.236,23.416,23.416,0,0,1-.6-2.734c-.012-.066-.012-.118-.026-.184-.118-.736-.236-1.564-.341-2.444-.013-.158-.026-.329-.052-.5,0-.052-.013-.105-.013-.171v-.013c-.092-.828-.158-1.709-.21-2.629-.04-.88-.08-1.8-.08-2.734,0-.512,0-1.038.014-1.577a9.8,9.8,0,0,1,.144-1.459,10.43,10.43,0,0,1,.749-2.615,25.487,25.487,0,0,1,1.2-2.392,20.253,20.253,0,0,0,2.839-10.158,28.015,28.015,0,0,0-1.459-10.25,4.89,4.89,0,0,0-1.287.171,25.833,25.833,0,0,1,1.511,10.067,19.051,19.051,0,0,1-2.721,9.593c-.447.828-.88,1.642-1.249,2.523a11.669,11.669,0,0,0-.906,3.614c-.039.276-.052.578-.066.88A53.5,53.5,0,0,0,1166.676,355.4Z" transform="translate(-1166.445 -322.152)" fill="#231f20"/>
                </g>
                <path id="Path_98" data-name="Path 98" d="M1136.191,348.434a17.649,17.649,0,0,0,.316,4.057,10.53,10.53,0,0,0,.35,1.431,11.477,11.477,0,0,0,.914,2.328c3.21,6.1,5.4,9.363,5.4,9.363l1.081-.632,1.115-.632,3.059-1.762,1.763-1.031,3.442-1.979a63.179,63.179,0,0,0,4.739-8.514c.217-.466.415-.948.615-1.431a31.555,31.555,0,0,0,1.68-5.155c.116-.515.216-1.014.282-1.513a10.056,10.056,0,0,0-.7-6.119,3.933,3.933,0,0,0-1.912-1.946,2.571,2.571,0,0,0-1.231-.183c-1.4.116-2.961,1.214-4.457,2.993a11.047,11.047,0,0,0-.832,1.047,26.768,26.768,0,0,0-2.71,4.574c-.183.366-.35.748-.516,1.131a39.562,39.562,0,0,0-3.176,12.106s-.167-2.91-.715-6.236c-.067-.4-.133-.815-.217-1.23-.233-1.181-.515-2.378-.848-3.476-.15-.449-.3-.881-.466-1.3-.649-1.68-1.5-2.944-2.577-3.292a2.085,2.085,0,0,0-.948-.083,2.2,2.2,0,0,0-1.281.649,8.6,8.6,0,0,0-2,4.822A15.411,15.411,0,0,0,1136.191,348.434Z" transform="translate(-1121.441 -315.699)" fill="#a522fc"/>
                <g id="Group_54" data-name="Group 54" transform="translate(14.749 19.005)">
                  <g id="Group_48" data-name="Group 48" transform="translate(15.632 3.003)">
                    <path id="Path_99" data-name="Path 99" d="M1136.356,338.955a18.157,18.157,0,0,1,3.858,1.73c.382.233.765.483,1.115.715a24.351,24.351,0,0,1,3.875,3.276c.116-.515.216-1.014.282-1.513a24.807,24.807,0,0,0-3.808-3.076c-.366-.233-.748-.449-1.131-.666a17.693,17.693,0,0,0-3.359-1.513A11.047,11.047,0,0,0,1136.356,338.955Z" transform="translate(-1136.356 -337.908)" fill="#7b1ac6"/>
                  </g>
                  <g id="Group_49" data-name="Group 49" transform="translate(12.406 8.624)">
                    <path id="Path_100" data-name="Path 100" d="M1138.449,345.035a25.245,25.245,0,0,1,5.371,2.311c.383.233.749.466,1.081.7a10.053,10.053,0,0,1,3.326,3.592c.217-.466.415-.948.615-1.431a11.823,11.823,0,0,0-3.575-3.426,11.234,11.234,0,0,0-1.1-.665,25.951,25.951,0,0,0-5.2-2.212C1138.782,344.27,1138.615,344.652,1138.449,345.035Z" transform="translate(-1138.449 -343.904)" fill="#7b1ac6"/>
                  </g>
                  <g id="Group_50" data-name="Group 50" transform="translate(12.239)">
                    <path id="Path_101" data-name="Path 101" d="M1139.14,362.586l1.763-1.031c1.9-4.706,3.525-9.6,4.855-14.086.116-.432.249-.848.367-1.264.5-1.746.964-3.426,1.38-5.005.116-.449.233-.881.349-1.313.466-1.863.882-3.543,1.2-4.989a2.571,2.571,0,0,0-1.231-.183c-.3,1.33-.666,2.843-1.1,4.507-.1.416-.2.832-.333,1.264-.4,1.58-.864,3.276-1.363,5.056-.116.4-.233.815-.35,1.23A156.123,156.123,0,0,1,1139.14,362.586Z" transform="translate(-1139.14 -334.705)" fill="#7b1ac6"/>
                  </g>
                  <g id="Group_51" data-name="Group 51" transform="translate(2.179 6.246)">
                    <path id="Path_102" data-name="Path 102" d="M1152.976,342.016c0,1.147.05,2.295.133,3.442.05.432.083.881.133,1.313v.017c.166,1.38.383,2.71.648,4.024.083.416.183.832.283,1.248a64.678,64.678,0,0,0,4.689,13.337l1.115-.632a64.111,64.111,0,0,1-4.624-13.27c-.083-.4-.183-.816-.249-1.231a38.821,38.821,0,0,1-.615-3.974c-.067-.416-.1-.848-.133-1.265a29.817,29.817,0,0,1-.1-3.658A2.2,2.2,0,0,0,1152.976,342.016Z" transform="translate(-1152.976 -341.367)" fill="#7b1ac6"/>
                  </g>
                  <g id="Group_52" data-name="Group 52" transform="translate(0 9.593)">
                    <path id="Path_103" data-name="Path 103" d="M1154.821,349.073a6.866,6.866,0,0,1,2.445-2.062v-.017a6.638,6.638,0,0,1,1.247-.482,9.254,9.254,0,0,1,3.758-.25c-.15-.449-.3-.881-.466-1.3a10.917,10.917,0,0,0-3.426.282,10.03,10.03,0,0,0-1.247.433,8.33,8.33,0,0,0-2.129,1.38A15.432,15.432,0,0,0,1154.821,349.073Z" transform="translate(-1154.821 -344.937)" fill="#7b1ac6"/>
                  </g>
                  <g id="Group_53" data-name="Group 53" transform="translate(0.316 14.394)">
                    <path id="Path_104" data-name="Path 104" d="M1153.686,353.451a10.548,10.548,0,0,0,.35,1.431,9.652,9.652,0,0,1,3.891-2.843,10.361,10.361,0,0,1,3.958-.749c-.067-.4-.133-.815-.217-1.23a11.441,11.441,0,0,0-3.991.748c-.432.166-.832.366-1.214.548A11.41,11.41,0,0,0,1153.686,353.451Z" transform="translate(-1153.686 -350.059)" fill="#7b1ac6"/>
                  </g>
                </g>
                <g id="Group_59" data-name="Group 59" transform="translate(13.452 37.258)">
                  <path id="Path_105" data-name="Path 105" d="M1159.22,362.582l.449.865v.017l.017.033.3.582,2.727,5.4" transform="translate(-1158.089 -354.7)" fill="none"/>
                  <path id="Path_106" data-name="Path 106" d="M1145.118,367.566l3.526,2.029,1.1-.632,4.739-2.743.466-.266.582-.333,1.1-.649,6.336-3.658c-.017-.1-.017-.217-.034-.316-.017-.183-.033-.367-.067-.549-.016-.082-.016-.166-.033-.249-.316-2.261-.865-4.49-1.1-5.454-.083-.3-.133-.482-.133-.482a2.977,2.977,0,0,1-.349.2c-.666.382-2.229,1.264-4.274,2.361-.067.034-.15.083-.217.117-.166.083-.316.166-.482.265-1.264.666-2.677,1.4-4.141,2.129-.15.083-.316.166-.482.249-.632.316-1.281.615-1.912.931a8.164,8.164,0,0,0-3.043,2.411v.017A8.05,8.05,0,0,0,1145.118,367.566Z" transform="translate(-1145.118 -354.18)" fill="#f4d3ff"/>
                  <g id="Group_55" data-name="Group 55" transform="translate(10.411)">
                    <path id="Path_107" data-name="Path 107" d="M1146.289,365.615l1.1-.649c.616-.9,1.164-1.8,1.647-2.677v-.016h.016a6.175,6.175,0,0,1,.35-.649c.582-1.064,1.064-2.062,1.5-2.977.832-1.83,1.364-3.243,1.6-3.908.083-.249.116-.383.133-.4l-.266-.083-.249-.083a1.912,1.912,0,0,1-.1.283,37.85,37.85,0,0,1-1.581,3.907c-.415.915-.914,1.929-1.5,2.993-.116.217-.232.432-.365.649A39.093,39.093,0,0,1,1146.289,365.615Z" transform="translate(-1146.289 -354.174)" fill="#a522fc"/>
                  </g>
                  <g id="Group_57" data-name="Group 57" transform="translate(11.162 2.761)">
                    <g id="Group_56" data-name="Group 56">
                      <path id="Path_108" data-name="Path 108" d="M1151.8,361.169l-4.671,1.3v.006l-.338.091-.118-.375-1.531-4.809c.16-.086.321-.172.476-.258l1.409,4.425.117.364.349-.1,4.231-1.178C1151.754,360.81,1151.775,360.986,1151.8,361.169Z" transform="translate(-1145.145 -357.119)" fill="#a522fc"/>
                    </g>
                  </g>
                  <g id="Group_58" data-name="Group 58" transform="translate(6.536 5.155)">
                    <path id="Path_109" data-name="Path 109" d="M1153.668,359.922l2.827,6.636.466-.266-2.811-6.619C1154,359.756,1153.834,359.839,1153.668,359.922Z" transform="translate(-1153.668 -359.673)" fill="#a522fc"/>
                  </g>
                </g>
                <path id="Path_110" data-name="Path 110" d="M1153.446,360.592a4.379,4.379,0,0,1,3.647,1.732,6.509,6.509,0,0,1,1.105,3.91l-3.009,1.744Z" transform="translate(-1134.719 -317.317)" fill="#231f20" opacity="0.5"/>
                <path id="Path_111" data-name="Path 111" d="M1164.241,355.34a21.294,21.294,0,0,0,1.472,4.927l.013.013s.132.013.355.027c.644.025,2.063.1,3.653.21.42.013.841.039,1.274.066.316.026.631.039.947.066.157.013.3.026.459.026.421.039.841.066,1.236.092.592.052,1.13.092,1.564.131,0-.039.013-.079.013-.131a18.166,18.166,0,0,1,.841-4.127l.013-.012v-.013c.185-.539.395-1.091.631-1.643a6.75,6.75,0,0,0,.434-1.288,6.521,6.521,0,0,0,.171-1.984,6.684,6.684,0,0,0-1.367-2.563,2.863,2.863,0,0,0-.3-.263,9.094,9.094,0,0,0-1.432-.972v-.013a26.37,26.37,0,0,0-3-1.446c-.7-.29-1.17-.447-1.17-.447C1167.2,347.389,1164.411,354.88,1164.241,355.34Z" transform="translate(-1163.963 -316.405)" fill="#231f20" opacity="0.5"/>
                <g id="Group_64" data-name="Group 64" transform="translate(2.105 32.07)">
                  <path id="Path_112" data-name="Path 112" d="M1156.672,360.644l.5.289,4.324,2.511.815.459.723.421,2.1,1.222a.013.013,0,0,1,.013.013l.841.487.145.079,1.879,1.091.447.249v.013l1.341.749.328.2,1.419.815,1.09-.63,2.392-1.38c-.066-1.026-.185-2.234-.368-3.391a13.906,13.906,0,0,0-.657-2.694,1.012,1.012,0,0,0-.092-.21.068.068,0,0,0-.026-.052,1.491,1.491,0,0,1-.079-.223c-.092-.158-.184-.329-.263-.46s-.158-.223-.25-.341v-.013a2.417,2.417,0,0,0-.171-.211,19.9,19.9,0,0,0-2.129-2.326c-.354-.328-.7-.618-1-.88a2.617,2.617,0,0,0-.3-.262c-.577-.5-.972-.8-.972-.8l-.631.446-1.393.986h-.013l-.013.012-.88.618.46-1.3.092-.237.539-1.537.276-.723-.867-.631-.631-.446-.316-.237-.92-.67-3.351-2.418-.552-.394-.249-.185s-.052.093-.158.29-.21.486-.368.841a46.384,46.384,0,0,0-2.142,5.992v.013c-.013.066-.039.131-.052.2s-.039.145-.066.211a32.708,32.708,0,0,0-.775,4.047c-.013.079-.013.158-.026.237A.745.745,0,0,0,1156.672,360.644Z" transform="translate(-1156.672 -348.64)" fill="#4005b9"/>
                  <g id="Group_60" data-name="Group 60" transform="translate(3.448)">
                    <path id="Path_113" data-name="Path 113" d="M1166.316,348.939a59.021,59.021,0,0,0,1.414,8.5q.049.225.1.449c.017.067.033.116.05.167.05.183.083.366.133.548a21.807,21.807,0,0,0,2.511,5.671c.1.183.216.366.316.532q.249.4.5.749l.847.5q-.5-.674-1-1.447c-.067-.116-.15-.232-.233-.366a22.336,22.336,0,0,1-2.561-5.737c-.05-.183-.1-.366-.133-.548-.017-.05-.033-.116-.05-.166-.05-.183-.083-.367-.116-.549a55.192,55.192,0,0,1-1.381-8.414l-.249-.183Z" transform="translate(-1166.316 -348.64)" fill="#fff"/>
                  </g>
                  <g id="Group_61" data-name="Group 61" transform="translate(0.827 3.667)">
                    <path id="Path_114" data-name="Path 114" d="M1174.829,352.784l-3.464,5.954v0l-.14.236-.234-.128v0l-4.326-2.411c.035-.137.069-.278.109-.411l4.076,2.273v0l.234.128.141-.241,3.28-5.639Z" transform="translate(-1166.665 -352.552)" fill="#fff"/>
                  </g>
                  <g id="Group_62" data-name="Group 62" transform="translate(4.828 7.516)">
                    <path id="Path_115" data-name="Path 115" d="M1164.868,364.773l-2.827-.832,1.53.881,1.613.482.2.05.15-.249,5.005-8.181c-.1-.1-.2-.183-.3-.266l-4.939,8.082-.083.133Z" transform="translate(-1162.041 -356.657)" fill="#fff"/>
                  </g>
                  <g id="Group_63" data-name="Group 63" transform="translate(13.126 12.022)">
                    <path id="Path_116" data-name="Path 116" d="M1161.642,361.73l-3.876,7.3.333.2,3.875-7.283a1.271,1.271,0,0,0-.116-.266,2.021,2.021,0,0,1-.083-.217Z" transform="translate(-1157.766 -361.464)" fill="#fff"/>
                  </g>
                </g>
                <path id="Path_117" data-name="Path 117" d="M1141.652,327.2a20.731,20.731,0,0,0,.672,3.215l.051.191.19-.047a20.024,20.024,0,0,0,2.724-.83,20.044,20.044,0,0,0-2.815.434l.241.143A20.873,20.873,0,0,0,1141.652,327.2Z" transform="translate(-1110.744 -315.23)" fill="#7b1ac6"/>
                <path id="Path_118" data-name="Path 118" d="M1145.126,330.266a12.571,12.571,0,0,0,.837,3.012l.052.128.118-.007a10.131,10.131,0,0,0,1.384-.179,9.844,9.844,0,0,0-1.384-.179l.169.121A12.57,12.57,0,0,0,1145.126,330.266Z" transform="translate(-1116.228 -315.422)" fill="#7b1ac6"/>
              </g>
              <path id="Path_119" data-name="Path 119" d="M1143.888,361.75l5.951,32.022h18.907l5.935-32.022Z" transform="translate(-1142.231 -317.39)" fill="#43269d"/>
            </g>
            <path id="Path_120" data-name="Path 120" d="M1157.354,358.5l.494.288h-.941l5.951,32.021h11.057a134.422,134.422,0,0,1-4.77-25.48c-.065-.734-.113-1.451-.16-2.169v-.032c-.112-1.42-.175-2.888-.207-4.34-.016-.447-.032-.91-.032-1.357-.016-.223-.016-.463-.016-.7v-1.212c0-.622.016-1.229.048-1.852.016-.733.032-1.467.1-2.2a66.38,66.38,0,0,1,2.3-14.823c.064-.255.128-.51.207-.75v-.016c.048-.159.112-.319.159-.478v-.016a50.068,50.068,0,0,1,1.915-5.233c.127-.256.223-.511.35-.75.048-.127.1-.24.144-.352.1-.191.175-.4.255-.574a36.437,36.437,0,0,0,2.282-6.941v-.016c.064-.239.1-.51.144-.75v-.016a22.177,22.177,0,0,0,.383-5.488,4.038,4.038,0,0,0-.527-.255.164.164,0,0,0-.127-.064,3.672,3.672,0,0,0-.654-.256c-6.015-1.914-7.658,7.435-7.77,8.01a4.89,4.89,0,0,0-2.856-1.037,5.126,5.126,0,0,0-1.277.175,8.555,8.555,0,0,0-.989.4c-5.106,2.712,2.9,14.344-3.957,19.96-3.765,3.095-3.956,7.706-3.319,11.168A21.232,21.232,0,0,0,1157,358.3l.016.016Z" transform="translate(-1155.251 -314.432)" fill="#fff"/>
          </g>
        </g>
      </g>
    </g>
  </g>
</svg>
